HIERARCHY
ROOT joint_Root
{
	OFFSET 0.0 0.0 0.0
	CHANNELS 6 Xposition Yposition Zposition Zrotation Xrotation Yrotation 
	JOINT Hips
	{
		OFFSET 4.5925 91.4895 -427.239
		CHANNELS 6 Xposition Yposition Zposition Zrotation Xrotation Yrotation 
		JOINT Spine
		{
			OFFSET 15.7357 0.0 0.0
			CHANNELS 6 Xposition Yposition Zposition Zrotation Xrotation Yrotation 
			JOINT Chest
			{
				OFFSET 8.98455 -0.406207 0.0
				CHANNELS 6 Xposition Yposition Zposition Zrotation Xrotation Yrotation 
				JOINT Neck
				{
					OFFSET 16.3773 0.0 0.0
					CHANNELS 6 Xposition Yposition Zposition Zrotation Xrotation Yrotation 
					JOINT Head
					{
						OFFSET 6.45672 0.0 0.0
						CHANNELS 6 Xposition Yposition Zposition Zrotation Xrotation Yrotation 
						End Site
						{
							OFFSET 0.0 0.0 0.0
						}
					}
				}
				JOINT Shoulder_L
				{
					OFFSET 12.9942 -0.242716 4.98039
					CHANNELS 6 Xposition Yposition Zposition Zrotation Xrotation Yrotation 
					JOINT UpperArm_L
					{
						OFFSET 5.34809 0.0 0.0
						CHANNELS 6 Xposition Yposition Zposition Zrotation Xrotation Yrotation 
						JOINT LowerArm_L
						{
							OFFSET 24.3286 1.87007e-05 0.0
							CHANNELS 6 Xposition Yposition Zposition Zrotation Xrotation Yrotation 
							JOINT Hand_L
							{
								OFFSET 22.2916 0.0 0.0
								CHANNELS 6 Xposition Yposition Zposition Zrotation Xrotation Yrotation 
								End Site
								{
									OFFSET 0.0 0.0 0.0
								}
							}
						}
					}
				}
				JOINT Shoulder_R
				{
					OFFSET 12.9945 -0.242716 -4.98039
					CHANNELS 6 Xposition Yposition Zposition Zrotation Xrotation Yrotation 
					JOINT UpperArm_R
					{
						OFFSET -5.34813 0.0 0.0
						CHANNELS 6 Xposition Yposition Zposition Zrotation Xrotation Yrotation 
						JOINT LowerArm_R
						{
							OFFSET -24.3289 0.000322201 0.0
							CHANNELS 6 Xposition Yposition Zposition Zrotation Xrotation Yrotation 
							JOINT Hand_R
							{
								OFFSET -22.2915 -0.000108084 0.0
								CHANNELS 6 Xposition Yposition Zposition Zrotation Xrotation Yrotation 
								End Site
								{
									OFFSET 0.0 0.0 0.0
								}
							}
						}
					}
				}
			}
		}
		JOINT UpperLeg_L
		{
			OFFSET -2.19248 -6.46944 0.0
			CHANNELS 6 Xposition Yposition Zposition Zrotation Xrotation Yrotation 
			JOINT LowerLeg_L
			{
				OFFSET 39.0811 0.0 -1.23785e-05
				CHANNELS 6 Xposition Yposition Zposition Zrotation Xrotation Yrotation 
				JOINT Foot_L
				{
					OFFSET 40.9854 0.0 -1.26872e-05
					CHANNELS 6 Xposition Yposition Zposition Zrotation Xrotation Yrotation 
					JOINT Toes_L
					{
						OFFSET 11.7543 0.0 0.0
						CHANNELS 6 Xposition Yposition Zposition Zrotation Xrotation Yrotation 
						End Site
						{
							OFFSET 0.0 0.0 0.0
						}
					}
				}
			}
		}
		JOINT UpperLeg_R
		{
			OFFSET -2.19251 6.46944 0.0
			CHANNELS 6 Xposition Yposition Zposition Zrotation Xrotation Yrotation 
			JOINT LowerLeg_R
			{
				OFFSET -39.0811 -0.00228153 -0.0401928
				CHANNELS 6 Xposition Yposition Zposition Zrotation Xrotation Yrotation 
				JOINT Foot_R
				{
					OFFSET -40.9854 0.0 0.0
					CHANNELS 6 Xposition Yposition Zposition Zrotation Xrotation Yrotation 
					JOINT Toes_R
					{
						OFFSET -11.7543 0.0 0.0
						CHANNELS 6 Xposition Yposition Zposition Zrotation Xrotation Yrotation 
						End Site
						{
							OFFSET 0.0 0.0 0.0
						}
					}
				}
			}
		}
	}
}
MOTION
Frames:	4
Frame Time:	0.0333333
0.000000 0.000000 0.000000 0.000000 0.000000 -0.000000 129.173000 95.095200 -122.409000 92.235600 -4.112890 -3.622850 15.735700 0.000005 -0.000001 123.061000 83.362800 -124.605000 8.984550 -0.406207 -0.000000 3.483450 7.290750 -3.310710 16.377300 -0.000001 -0.000001 -2.057220 -4.106770 0.495634 6.456720 -0.000001 -0.000000 -3.747000 -8.887090 2.975470 12.994200 -0.242716 4.980390 -86.134300 -9.761370 -68.270500 5.348090 -0.000007 -0.000001 -71.680100 45.874100 39.523200 24.328600 0.000019 0.000005 1.609570 -0.098132 -93.473800 22.291600 -0.000001 0.000005 3.069770 5.548130 -8.618670 12.994500 -0.242716 -4.980390 90.120600 -0.651762 -79.506700 -5.348130 -0.000001 -0.000004 -50.165900 35.873200 -48.446500 -24.328900 0.000322 -0.000009 -5.054250 3.272510 -122.841000 -22.291500 -0.000108 -0.000004 20.114300 5.592670 -10.917600 -2.192480 -6.469440 -0.000000 177.324000 2.951280 -29.527600 39.081100 -0.000007 -0.000012 -0.054183 0.034745 57.333000 40.985400 -0.000006 -0.000013 5.048060 -8.296420 -54.181000 11.754300 -0.000000 0.000003 -0.007418 -0.083225 -19.965200 -2.192510 6.469440 -0.000001 173.962000 26.353400 -176.986000 -39.081100 -0.002282 -0.040193 0.014941 -0.038958 16.599800 -40.985400 0.000008 0.000006 9.966000 24.521900 -59.757000 -11.754300 -0.000006 -0.000006 -0.046973 -0.286796 -28.376000
0.000000 0.000000 0.000000 0.000000 0.000000 -0.000000 129.544000 95.153400 -118.883000 92.377200 -5.438490 -4.581090 15.735700 0.000005 -0.000001 128.063000 83.242400 -130.003000 8.984550 -0.406207 -0.000000 3.049370 8.404200 -4.105510 16.377300 -0.000001 -0.000001 -2.201700 -3.846350 -0.199296 6.456720 -0.000001 -0.000000 -3.910250 -9.410650 2.566450 12.994200 -0.242716 4.980390 -85.114600 -11.906800 -67.497700 5.348090 -0.000007 -0.000001 -72.823200 42.258000 40.413400 24.328600 0.000019 0.000005 4.162580 -0.356050 -94.872900 22.291600 -0.000001 0.000005 3.692790 5.551130 -8.758110 12.994500 -0.242716 -4.980390 90.378500 -2.101180 -79.785000 -5.348130 -0.000001 -0.000004 -49.295700 34.630100 -49.539500 -24.328900 0.000322 -0.000009 -6.245300 3.916460 -121.972000 -22.291500 -0.000108 -0.000004 21.563300 5.588420 -10.674200 -2.192480 -6.469440 -0.000000 178.258000 2.984340 -31.143700 39.081100 -0.000007 -0.000012 -0.018068 0.017747 45.519400 40.985400 -0.000006 -0.000013 5.375440 -6.464890 -57.999000 11.754300 -0.000000 0.000003 -0.007931 -0.087481 -20.139000 -2.192510 6.469440 -0.000001 172.906000 25.424600 -175.884000 -39.081100 -0.002282 -0.040193 0.011924 -0.029626 16.178600 -40.985400 0.000008 0.000006 10.370400 24.708900 -58.436100 -11.754300 -0.000006 -0.000006 -0.063827 -0.344016 -30.794500
0.000000 0.000000 0.000000 0.000000 0.000000 -0.000000 129.821000 94.257900 -115.269000 91.440100 -7.345010 -4.112990 15.735700 0.000005 -0.000001 129.575000 82.642700 -131.460000 8.984550 -0.406207 -0.000000 3.777090 9.427990 -4.082910 16.377300 -0.000001 -0.000001 -2.554490 -2.899560 -1.156480 6.456720 -0.000001 -0.000000 -4.565840 -9.686910 2.479990 12.994200 -0.242716 4.980390 -84.624500 -12.279000 -66.133000 5.348090 -0.000007 -0.000001 -71.825600 38.651000 38.545900 24.328600 0.000019 0.000005 5.646150 -0.637340 -96.418100 22.291600 -0.000001 0.000005 4.070980 5.547300 -8.579930 12.994500 -0.242716 -4.980390 90.397300 -2.385510 -80.542500 -5.348130 -0.000001 -0.000004 -48.001500 34.236600 -50.066000 -24.328900 0.000322 -0.000009 -6.754020 3.982990 -120.393000 -22.291500 -0.000108 -0.000004 22.665900 5.585920 -10.534800 -2.192480 -6.469440 -0.000000 -179.620000 1.951660 -30.451300 39.081100 -0.000007 -0.000012 0.002697 -0.004063 33.561700 40.985400 -0.000006 -0.000013 3.314440 -3.738900 -59.464000 11.754300 -0.000000 0.000003 -0.007696 -0.085544 -20.059900 -2.192510 6.469440 -0.000001 173.229000 20.316600 -175.156000 -39.081100 -0.002282 -0.040193 0.015030 -0.033297 19.371200 -40.985400 0.000008 0.000006 11.214500 20.998100 -59.327900 -11.754300 -0.000006 -0.000006 -0.084217 -0.403578 -33.346900
0.000000 0.000000 0.000000 0.000000 0.000000 -0.000000 130.087000 92.486200 -111.174000 90.793400 -8.452220 -2.831300 15.735700 0.000005 -0.000001 126.249000 82.016100 -127.974000 8.984550 -0.406207 -0.000000 5.313810 9.458410 -3.892450 16.377300 -0.000001 -0.000001 -2.952230 -1.772750 -2.103040 6.456720 -0.000001 -0.000000 -5.963060 -9.417320 2.123090 12.994200 -0.242716 4.980390 -84.970700 -10.934900 -65.111100 5.348090 -0.000007 -0.000001 -70.016000 34.368600 35.043400 24.328600 0.000019 0.000005 6.288510 -0.849964 -97.665800 22.291600 -0.000001 0.000005 4.448490 5.542440 -8.355320 12.994500 -0.242716 -4.980390 90.236000 -1.551940 -81.355900 -5.348130 -0.000001 -0.000004 -46.805800 34.764000 -49.744700 -24.328900 0.000322 -0.000009 -6.641450 3.552820 -118.020000 -22.291500 -0.000108 -0.000004 22.562200 5.581160 -10.275200 -2.192480 -6.469440 -0.000000 -178.313000 0.448329 -29.893200 39.081100 -0.000007 -0.000012 0.009877 -0.019445 26.928400 40.985400 -0.000006 -0.000013 1.047880 -2.035420 -61.047100 11.754300 -0.000000 0.000003 -0.006895 -0.078772 -19.783500 -2.192510 6.469440 -0.000001 172.208000 17.002300 -172.875000 -39.081100 -0.002282 -0.040193 0.021337 -0.042064 23.192300 -40.985400 0.000008 0.000006 11.263700 19.510400 -62.505400 -11.754300 -0.000006 -0.000006 -0.106278 -0.459871 -35.798300
